<svg width="147" height="147" viewBox="0 0 147 147" fill="none" xmlns="http://www.w3.org/2000/svg">
    <path opacity="0.1" fill-rule="evenodd" clip-rule="evenodd" d="M116.845 111.076C142.188 78.9048 110.943 82.6548 92.4132 55.1829C73.8832 27.711 77.2141 -6.93829 49.7423 11.5917C22.2704 30.1218 15.0216 67.4137 33.5516 94.8856C52.0816 122.357 91.5028 143.248 116.845 111.076Z" fill="#FD6B22"/>
    <g filter="url(#filter0_f_31_2021)">
    <path fill-rule="evenodd" clip-rule="evenodd" d="M105.293 82.5724C106.11 82.3306 107.021 82.6464 107.539 83.341C107.933 83.8706 108.052 84.5289 107.868 85.1493C107.054 87.887 104.751 89.9092 102.016 90.4696L105.187 93.6405C105.46 93.913 105.46 94.356 105.187 94.6285C105.05 94.7641 104.871 94.8326 104.692 94.8326C104.514 94.8326 104.335 94.7641 104.198 94.6271L100.5 90.9294L96.8022 94.6285C96.6653 94.7641 96.4864 94.8326 96.3075 94.8326C96.1286 94.8326 95.9498 94.7641 95.8128 94.6271C95.5403 94.3546 95.5403 93.9116 95.8128 93.6391L98.9837 90.4682C96.2474 89.9078 93.9458 87.8856 93.131 85.1479C92.9466 84.5289 93.0667 83.8692 93.4608 83.341C93.9793 82.6478 94.8919 82.3306 95.708 82.5738C97.8839 83.2208 99.5986 84.8167 100.5 86.8137C101.401 84.8153 103.116 83.2208 105.293 82.5724ZM94.5816 84.1767C94.5061 84.2773 94.3929 84.4855 94.4712 84.7497C95.1867 87.1547 97.3011 88.9002 99.7565 89.1979C99.4589 86.7439 97.7134 84.6295 95.3083 83.914C95.2482 83.8958 95.1881 83.886 95.1294 83.886C94.9226 83.886 94.7172 83.995 94.5816 84.1767ZM106.528 84.7497C105.812 87.1547 103.698 88.9002 101.244 89.1979C101.54 86.7439 103.285 84.6281 105.692 83.9126C105.751 83.8958 105.811 83.886 105.871 83.886C106.078 83.886 106.283 83.995 106.419 84.1767C106.494 84.2773 106.607 84.4855 106.528 84.7497ZM97.7901 95.6165C97.3932 96.012 96.8664 96.23 96.3074 96.23C95.7484 96.23 95.2215 96.012 94.8246 95.6165C94.4278 95.221 94.2111 94.6928 94.2111 94.1338C94.2111 93.5748 94.4292 93.0479 94.8246 92.651L96.4248 91.0509C95.5024 90.5897 94.6765 89.972 93.968 89.2426H86.5249C85.3692 89.2426 84.4287 90.1831 84.4287 91.3388V95.5313C84.4287 96.687 85.3692 97.6275 86.5249 97.6275H99.8011V93.6041L97.7901 95.6165ZM107.032 89.2426H114.475C115.63 89.2426 116.571 90.1831 116.571 91.3388V95.5313C116.571 96.687 115.63 97.6275 114.475 97.6275H101.198V93.6041L103.209 95.6165C103.606 96.012 104.133 96.23 104.692 96.23C105.251 96.23 105.779 96.0134 106.175 95.6165C106.57 95.2196 106.788 94.6942 106.788 94.1338C106.788 93.5734 106.57 93.0465 106.175 92.651L104.575 91.0509C105.497 90.5897 106.323 89.9734 107.032 89.2426ZM99.801 99.025H86.5249C86.2859 99.025 86.0525 98.9999 85.8261 98.9538V109.506C85.8261 111.432 87.3941 113 89.3199 113H99.801V99.025ZM114.475 99.025H101.198V113H111.68C113.605 113 115.173 111.432 115.173 109.506V98.9538C114.947 98.9999 114.714 99.025 114.475 99.025Z" fill="#FD6B22"/>
    </g>
    <path fill-rule="evenodd" clip-rule="evenodd" d="M110.79 30.1729C112.542 29.6539 114.498 30.3319 115.611 31.8229C116.457 32.9599 116.712 34.3729 116.316 35.7049C114.57 41.5819 109.626 45.9229 103.755 47.1259L110.562 53.9329C111.147 54.5179 111.147 55.4689 110.562 56.0539C110.268 56.3449 109.884 56.4919 109.5 56.4919C109.116 56.4919 108.732 56.3449 108.438 56.0509L100.5 48.1129L92.562 56.0539C92.268 56.3449 91.884 56.4919 91.5 56.4919C91.116 56.4919 90.732 56.3449 90.438 56.0509C89.853 55.4659 89.853 54.5149 90.438 53.9299L97.245 47.1229C91.371 45.9199 86.43 41.5789 84.681 35.7019C84.285 34.3729 84.543 32.9569 85.389 31.8229C86.502 30.3349 88.461 29.6539 90.213 30.1759C94.884 31.5649 98.565 34.9909 100.5 39.2779C102.435 34.9879 106.116 31.5649 110.79 30.1729ZM87.795 33.6169C87.633 33.8329 87.39 34.2799 87.558 34.8469C89.094 40.0099 93.633 43.7569 98.904 44.3959C98.265 39.1279 94.518 34.5889 89.355 33.0529C89.226 33.0139 89.097 32.9929 88.971 32.9929C88.527 32.9929 88.086 33.2269 87.795 33.6169ZM113.439 34.8469C111.903 40.0099 107.364 43.7569 102.096 44.3959C102.732 39.1279 106.479 34.5859 111.645 33.0499C111.771 33.0139 111.9 32.9929 112.029 32.9929C112.473 32.9929 112.914 33.2269 113.205 33.6169C113.367 33.8329 113.61 34.2799 113.439 34.8469ZM94.683 58.1749C93.831 59.0239 92.7 59.4919 91.5 59.4919C90.3 59.4919 89.169 59.0239 88.317 58.1749C87.465 57.3259 87 56.1919 87 54.9919C87 53.7919 87.468 52.6609 88.317 51.8089L91.752 48.3739C89.772 47.3839 87.999 46.0579 86.478 44.4919H70.5C68.019 44.4919 66 46.5109 66 48.9919V57.9919C66 60.4729 68.019 62.4919 70.5 62.4919H99V53.8549L94.683 58.1749ZM114.522 44.4919H130.5C132.981 44.4919 135 46.5109 135 48.9919V57.9919C135 60.4729 132.981 62.4919 130.5 62.4919H102V53.8549L106.317 58.1749C107.169 59.0239 108.3 59.4919 109.5 59.4919C110.7 59.4919 111.834 59.0269 112.683 58.1749C113.532 57.3229 114 56.1949 114 54.9919C114 53.7889 113.532 52.6579 112.683 51.8089L109.248 48.3739C111.228 47.3839 113.001 46.0609 114.522 44.4919ZM99 65.4919H70.5C69.987 65.4919 69.486 65.4379 69 65.3389V87.9919C69 92.1259 72.366 95.4919 76.5 95.4919H99V65.4919ZM130.5 65.4919H102V95.4919H124.5C128.634 95.4919 132 92.1259 132 87.9919V65.3389C131.514 65.4379 131.013 65.4919 130.5 65.4919Z" fill="#FD6B22"/>
    <defs>
    <filter id="filter0_f_31_2021" x="54.4287" y="52.4918" width="92.1421" height="90.5082" filterUnits="userSpaceOnUse" color-interpolation-filters="sRGB">
    <feFlood flood-opacity="0" result="BackgroundImageFix"/>
    <feBlend mode="normal" in="SourceGraphic" in2="BackgroundImageFix" result="shape"/>
    <feGaussianBlur stdDeviation="15" result="effect1_foregroundBlur_31_2021"/>
    </filter>
    </defs>
    </svg>
    